<svg xmlns="http://www.w3.org/2000/svg" width="268.308" height="68.018" viewBox="0 0 268.308 68.018">
  <g id="Group_1358" data-name="Group 1358" transform="translate(-16 -45.227)">
    <path id="Path_1113" data-name="Path 1113" d="M12.976-6.6l1.685-11.169h3.552L15.051,0h-3.6L9.375-10.474,7.324,0H3.711L.537-17.773H4.114L5.786-6.616,7.874-17.773h3.015ZM29.833-7.69H24.243v4.712h6.616V0H20.654V-17.773H30.834v2.991H24.243v4.2h5.591ZM33.422,0V-17.773h5.493a6.337,6.337,0,0,1,4.23,1.239A4.518,4.518,0,0,1,44.591-12.9a4.378,4.378,0,0,1-.6,2.332,3.53,3.53,0,0,1-1.636,1.428A3.108,3.108,0,0,1,44.2-7.77a4.7,4.7,0,0,1,.647,2.545,5.069,5.069,0,0,1-1.422,3.906A5.848,5.848,0,0,1,39.306,0Zm3.589-7.727v4.749h2.295a1.8,1.8,0,0,0,1.465-.6,2.573,2.573,0,0,0,.5-1.7q0-2.393-1.733-2.454Zm0-2.612h1.868a1.9,1.9,0,0,0,2.112-2.185,2.507,2.507,0,0,0-.488-1.733,2.082,2.082,0,0,0-1.587-.525h-1.9ZM10.6,17.749H5.017V25H1.428V7.227h9.839v2.991H5.017v4.553H10.6ZM17.565,25H13.977V7.227h3.589Zm15.942,0H29.918L24.669,13.342V25H21.081V7.227h3.589L29.931,18.9V7.227h3.577Zm12.084-3.638H40.7L39.745,25h-3.8L41.5,7.227h3.284L50.377,25H46.544Zm-4.114-2.991H44.8l-1.66-6.335ZM64.964,25H61.375L56.126,13.342V25H52.537V7.227h3.589L61.387,18.9V7.227h3.577Zm15.429-5.92a6.647,6.647,0,0,1-1.709,4.6,6.036,6.036,0,0,1-4.443,1.563,5.6,5.6,0,0,1-4.62-1.984A8.79,8.79,0,0,1,68.015,17.6V14.612a8.564,8.564,0,0,1,1.66-5.646,6.567,6.567,0,0,1,9.027-.36,7.383,7.383,0,0,1,1.715,4.663h-3.6a4.787,4.787,0,0,0-.58-2.594,2.288,2.288,0,0,0-1.947-.714,2.177,2.177,0,0,0-2.039,1.007,7.042,7.042,0,0,0-.635,3.314v3.357a7.747,7.747,0,0,0,.592,3.638,2.175,2.175,0,0,0,2.032.989,2.35,2.35,0,0,0,1.953-.69,4.543,4.543,0,0,0,.61-2.5Zm11.889-1.77H86.691v4.712h6.616V25H83.1V7.227H93.283v2.991H86.691v4.2h5.591ZM1.428,50V32.227h4.7A6.469,6.469,0,0,1,11.09,34.2a7.748,7.748,0,0,1,1.886,5.42V42.5A7.779,7.779,0,0,1,11.127,48a6.605,6.605,0,0,1-5.1,2ZM5.017,35.217v11.8H6.091a3.011,3.011,0,0,0,2.527-.946,5.629,5.629,0,0,0,.769-3.265V39.722a6.312,6.312,0,0,0-.7-3.473,2.809,2.809,0,0,0-2.368-1.031ZM19.8,50H16.21V32.227H19.8Zm8.9-6.494H26.916V50H23.327V32.227h5.725a5.815,5.815,0,0,1,4.169,1.4A5.22,5.22,0,0,1,34.691,37.6q0,3.54-2.576,4.956l3.113,7.275V50H31.371Zm-1.782-2.991h2.039a1.888,1.888,0,0,0,1.611-.714,3.1,3.1,0,0,0,.537-1.91q0-2.673-2.087-2.673h-2.1ZM46.837,42.31H41.246v4.712h6.616V50H37.657V32.227H47.838v2.991H41.246v4.2h5.591Zm15.637,1.77a6.647,6.647,0,0,1-1.709,4.6,6.036,6.036,0,0,1-4.443,1.563A5.6,5.6,0,0,1,51.7,48.26,8.79,8.79,0,0,1,50.1,42.6V39.612a8.564,8.564,0,0,1,1.66-5.646,5.689,5.689,0,0,1,4.614-1.984,5.729,5.729,0,0,1,4.413,1.624A7.383,7.383,0,0,1,62.5,38.269H58.9a4.787,4.787,0,0,0-.58-2.594,2.288,2.288,0,0,0-1.947-.714,2.177,2.177,0,0,0-2.039,1.007,7.042,7.042,0,0,0-.635,3.314v3.357a7.747,7.747,0,0,0,.592,3.638,2.175,2.175,0,0,0,2.032.989,2.35,2.35,0,0,0,1.953-.69,4.543,4.543,0,0,0,.61-2.5ZM76.34,35.217H71.946V50h-3.6V35.217H64.023V32.227H76.34Z" transform="translate(191 63)" fill="#fff"/>
    <g id="Layer_2" data-name="Layer 2" transform="translate(16 47)">
      <g id="Layer_2-2" data-name="Layer 2">
        <path id="Path_752" data-name="Path 752" d="M114.82.31,77.72,0H63.65L54.21,15.6,43.75,0H26.4L46.5,32.76l-5.11,7.89L17,0H0L36.29,65.52h7.32L54,48.94,64.4,65.52h7.91L86.78,39.69h14.84l9-14.79-32.92.24L68.09,40.65l-5-7.89L74.35,14.15l34.37.31A18.11,18.11,0,0,1,123,32.15c0,9.9-8.23,16.53-18.09,16.69H92.38L83.15,65.52h22A33.36,33.36,0,0,0,114.82.31Z" fill="#fff"/>
      </g>
    </g>
    <line id="Line_1" data-name="Line 1" y2="65" transform="translate(172.5 47)" fill="none" stroke="#cc86a8" stroke-width="4"/>
  </g>
</svg>
